<svg width="350" height="40" viewBox="0 0 350 40" fill="none" xmlns="http://www.w3.org/2000/svg">
<path d="M29.032 5.736L19.768 39H9.976L0.376 5.736H8.68L15.016 32.856L20.968 5.736H29.032ZM38.935 13.512V39H31.351V13.512H38.935ZM35.095 0.0719976C36.407 0.0719976 37.479 0.487998 38.311 1.32C39.175 2.12 39.607 3.144 39.607 4.392C39.607 5.64 39.175 6.68 38.311 7.512C37.479 8.312 36.407 8.712 35.095 8.712C33.783 8.712 32.711 8.312 31.879 7.512C31.047 6.68 30.631 5.64 30.631 4.392C30.631 3.144 31.047 2.12 31.879 1.32C32.711 0.487998 33.783 0.0719976 35.095 0.0719976ZM59.8259 12.696C62.0339 12.696 63.7619 13.368 65.0099 14.712C66.2579 16.056 66.8819 17.944 66.8819 20.376V39H59.2979V21.672C59.2979 20.392 59.0899 19.512 58.6739 19.032C58.2899 18.52 57.6979 18.264 56.8979 18.264C55.3619 18.264 53.8899 19.368 52.4819 21.576V39H44.8979V13.512H51.5219L52.0499 16.536C53.1379 15.256 54.3059 14.296 55.5539 13.656C56.8339 13.016 58.2579 12.696 59.8259 12.696ZM80.185 13.512V39H72.601V13.512H80.185ZM76.345 0.0719976C77.657 0.0719976 78.729 0.487998 79.561 1.32C80.425 2.12 80.857 3.144 80.857 4.392C80.857 5.64 80.425 6.68 79.561 7.512C78.729 8.312 77.657 8.712 76.345 8.712C75.033 8.712 73.961 8.312 73.129 7.512C72.297 6.68 71.881 5.64 71.881 4.392C71.881 3.144 72.297 2.12 73.129 1.32C73.961 0.487998 75.033 0.0719976 76.345 0.0719976ZM97.1879 12.696C98.9479 12.696 100.532 12.952 101.94 13.464C103.348 13.976 104.676 14.76 105.924 15.816L102.66 20.328C101.06 19.112 99.4439 18.504 97.8119 18.504C96.1159 18.504 94.8359 19.128 93.9719 20.376C93.1079 21.624 92.6759 23.64 92.6759 26.424C92.6759 29.112 93.1079 31.016 93.9719 32.136C94.8359 33.256 96.0839 33.816 97.7159 33.816C98.5799 33.816 99.3639 33.688 100.068 33.432C100.772 33.144 101.62 32.696 102.612 32.088L105.924 36.792C103.396 38.808 100.532 39.816 97.3319 39.816C94.7399 39.816 92.4999 39.272 90.6119 38.184C88.7239 37.064 87.2679 35.512 86.2439 33.528C85.2199 31.512 84.7079 29.16 84.7079 26.472C84.7079 23.784 85.2199 21.4 86.2439 19.32C87.2679 17.24 88.7239 15.624 90.6119 14.472C92.4999 13.288 94.6919 12.696 97.1879 12.696ZM116.701 13.512V39H109.117V13.512H116.701ZM112.861 0.0719976C114.173 0.0719976 115.245 0.487998 116.077 1.32C116.941 2.12 117.373 3.144 117.373 4.392C117.373 5.64 116.941 6.68 116.077 7.512C115.245 8.312 114.173 8.712 112.861 8.712C111.549 8.712 110.477 8.312 109.645 7.512C108.813 6.68 108.397 5.64 108.397 4.392C108.397 3.144 108.813 2.12 109.645 1.32C110.477 0.487998 111.549 0.0719976 112.861 0.0719976ZM144.168 39H137.592L137.256 35.784C135.4 38.472 132.824 39.816 129.528 39.816C127.192 39.816 125.416 39.112 124.2 37.704C123.016 36.296 122.424 34.328 122.424 31.8V13.512H130.008V30.84C130.008 32.088 130.2 32.968 130.584 33.48C131 33.96 131.624 34.2 132.456 34.2C134.056 34.2 135.432 33.208 136.584 31.224V13.512H144.168V39ZM159.108 12.696C160.932 12.696 162.644 12.968 164.244 13.512C165.844 14.056 167.252 14.824 168.468 15.816L165.684 20.088C163.604 18.776 161.508 18.12 159.396 18.12C158.404 18.12 157.636 18.296 157.092 18.648C156.58 18.968 156.324 19.432 156.324 20.04C156.324 20.52 156.436 20.92 156.66 21.24C156.916 21.528 157.412 21.832 158.148 22.152C158.884 22.472 160.02 22.856 161.556 23.304C164.212 24.072 166.18 25.08 167.46 26.328C168.772 27.544 169.428 29.24 169.428 31.416C169.428 33.144 168.932 34.648 167.94 35.928C166.948 37.176 165.588 38.136 163.86 38.808C162.132 39.48 160.212 39.816 158.1 39.816C155.956 39.816 153.956 39.48 152.1 38.808C150.276 38.136 148.724 37.208 147.444 36.024L151.14 31.896C153.284 33.56 155.54 34.392 157.908 34.392C159.06 34.392 159.956 34.184 160.596 33.768C161.268 33.352 161.604 32.76 161.604 31.992C161.604 31.384 161.476 30.904 161.22 30.552C160.964 30.2 160.468 29.88 159.732 29.592C158.996 29.272 157.828 28.888 156.228 28.44C153.7 27.704 151.812 26.68 150.564 25.368C149.316 24.056 148.692 22.424 148.692 20.472C148.692 19 149.108 17.688 149.94 16.536C150.804 15.352 152.02 14.424 153.588 13.752C155.188 13.048 157.028 12.696 159.108 12.696ZM198.31 4.92C203.046 4.92 206.726 6.44 209.35 9.48C212.006 12.52 213.334 16.808 213.334 22.344C213.334 25.96 212.726 29.08 211.51 31.704C210.326 34.328 208.598 36.344 206.326 37.752C204.086 39.128 201.414 39.816 198.31 39.816C195.206 39.816 192.534 39.128 190.294 37.752C188.054 36.376 186.326 34.392 185.11 31.8C183.926 29.176 183.334 26.024 183.334 22.344C183.334 18.76 183.926 15.656 185.11 13.032C186.326 10.408 188.054 8.408 190.294 7.032C192.534 5.624 195.206 4.92 198.31 4.92ZM198.31 10.68C196.038 10.68 194.342 11.608 193.222 13.464C192.134 15.288 191.59 18.248 191.59 22.344C191.59 26.44 192.15 29.416 193.27 31.272C194.39 33.128 196.07 34.056 198.31 34.056C200.614 34.056 202.31 33.144 203.398 31.32C204.518 29.464 205.078 26.472 205.078 22.344C205.078 18.216 204.518 15.24 203.398 13.416C202.278 11.592 200.582 10.68 198.31 10.68ZM224.682 39.816C222.474 39.816 220.746 39.192 219.498 37.944C218.282 36.664 217.674 34.856 217.674 32.52V3.384L225.258 2.568V32.232C225.258 33.288 225.69 33.816 226.554 33.816C227.002 33.816 227.418 33.736 227.802 33.576L229.29 38.952C227.914 39.528 226.378 39.816 224.682 39.816ZM239.748 13.512V39H232.164V13.512H239.748ZM235.908 0.0719976C237.22 0.0719976 238.292 0.487998 239.124 1.32C239.988 2.12 240.42 3.144 240.42 4.392C240.42 5.64 239.988 6.68 239.124 7.512C238.292 8.312 237.22 8.712 235.908 8.712C234.596 8.712 233.524 8.312 232.692 7.512C231.86 6.68 231.444 5.64 231.444 4.392C231.444 3.144 231.86 2.12 232.692 1.32C233.524 0.487998 234.596 0.0719976 235.908 0.0719976ZM267.646 13.512L259.63 39H250.654L242.446 13.512H250.702L255.214 33.24L259.918 13.512H267.646ZM292.169 25.752C292.169 26.808 292.121 27.72 292.025 28.488H276.233C276.489 30.632 277.097 32.136 278.057 33C279.017 33.864 280.345 34.296 282.041 34.296C283.065 34.296 284.057 34.12 285.017 33.768C285.977 33.384 287.017 32.808 288.137 32.04L291.257 36.264C288.281 38.632 284.969 39.816 281.321 39.816C277.193 39.816 274.025 38.6 271.817 36.168C269.609 33.736 268.505 30.472 268.505 26.376C268.505 23.784 268.969 21.464 269.897 19.416C270.825 17.336 272.185 15.704 273.977 14.52C275.769 13.304 277.913 12.696 280.409 12.696C284.089 12.696 286.969 13.848 289.049 16.152C291.129 18.456 292.169 21.656 292.169 25.752ZM284.729 23.592C284.665 19.688 283.289 17.736 280.601 17.736C279.289 17.736 278.265 18.216 277.529 19.176C276.825 20.136 276.393 21.72 276.233 23.928H284.729V23.592ZM304.013 13.512V39H296.429V13.512H304.013ZM300.173 0.0719976C301.485 0.0719976 302.557 0.487998 303.389 1.32C304.253 2.12 304.685 3.144 304.685 4.392C304.685 5.64 304.253 6.68 303.389 7.512C302.557 8.312 301.485 8.712 300.173 8.712C298.861 8.712 297.789 8.312 296.957 7.512C296.125 6.68 295.709 5.64 295.709 4.392C295.709 3.144 296.125 2.12 296.957 1.32C297.789 0.487998 298.861 0.0719976 300.173 0.0719976ZM323.8 12.792C324.728 12.792 325.576 12.904 326.344 13.128L325.144 20.472C324.184 20.248 323.416 20.136 322.84 20.136C321.336 20.136 320.184 20.664 319.384 21.72C318.616 22.744 318.008 24.296 317.56 26.376V39H309.976V13.512H316.6L317.224 18.456C317.8 16.696 318.664 15.32 319.816 14.328C321 13.304 322.328 12.792 323.8 12.792ZM347.81 31.608C347.81 32.568 347.938 33.272 348.194 33.72C348.482 34.168 348.93 34.504 349.538 34.728L347.954 39.672C346.386 39.544 345.106 39.208 344.114 38.664C343.122 38.088 342.354 37.192 341.81 35.976C340.146 38.536 337.586 39.816 334.13 39.816C331.602 39.816 329.586 39.08 328.082 37.608C326.578 36.136 325.826 34.216 325.826 31.848C325.826 29.064 326.85 26.936 328.898 25.464C330.946 23.992 333.906 23.256 337.778 23.256H340.37V22.152C340.37 20.648 340.05 19.624 339.41 19.08C338.77 18.504 337.65 18.216 336.05 18.216C335.218 18.216 334.21 18.344 333.026 18.6C331.842 18.824 330.626 19.144 329.378 19.56L327.65 14.568C329.25 13.96 330.882 13.496 332.546 13.176C334.242 12.856 335.81 12.696 337.25 12.696C340.898 12.696 343.57 13.448 345.266 14.952C346.962 16.456 347.81 18.712 347.81 21.72V31.608ZM336.338 34.392C338.066 34.392 339.41 33.576 340.37 31.944V27.432H338.498C336.77 27.432 335.474 27.736 334.61 28.344C333.778 28.952 333.362 29.896 333.362 31.176C333.362 32.2 333.618 33 334.13 33.576C334.674 34.12 335.41 34.392 336.338 34.392Z" fill="#141414"/>
</svg>